<?xml version="1.0" encoding="UTF-8" standalone="no"?>
<!-- Created with Inkscape (http://www.inkscape.org/) -->

<svg
   width="210mm"
   height="297mm"
   viewBox="0 0 210 297"
   version="1.1"
   id="svg5"
   inkscape:version="1.1.1 (3bf5ae0d25, 2021-09-20)"
   sodipodi:docname="RO.svg"
   xmlns:inkscape="http://www.inkscape.org/namespaces/inkscape"
   xmlns:sodipodi="http://sodipodi.sourceforge.net/DTD/sodipodi-0.dtd"
   xmlns="http://www.w3.org/2000/svg"
   xmlns:svg="http://www.w3.org/2000/svg">
  <sodipodi:namedview
     id="namedview7"
     pagecolor="#ffffff"
     bordercolor="#666666"
     borderopacity="1.0"
     inkscape:pageshadow="2"
     inkscape:pageopacity="0.0"
     inkscape:pagecheckerboard="0"
     inkscape:document-units="mm"
     showgrid="false"
     inkscape:zoom="0.75843353"
     inkscape:cx="673.09788"
     inkscape:cy="384.34482"
     inkscape:window-width="1440"
     inkscape:window-height="829"
     inkscape:window-x="-8"
     inkscape:window-y="-8"
     inkscape:window-maximized="1"
     inkscape:current-layer="layer1" />
  <defs
     id="defs2" />
  <g
     inkscape:label="Capa 1"
     inkscape:groupmode="layer"
     id="layer1">
    <path
       style="fill:#ffffff;stroke-width:0.264583"
       d="m 80.327057,156.76233 c -0.661607,-1.10384 -9.918525,-17.09428 -10.951525,-18.91771 -0.06183,-0.10914 1.714934,-0.19844 3.948361,-0.19844 h 4.060778 l 5.399831,9.45885 c 2.969905,5.20237 5.626187,9.84581 5.902846,10.31875 l 0.503015,0.8599 h -3.975727 -3.975727 z m 14.367544,-0.79375 c -0.739939,-1.27331 -3.410773,-5.88698 -5.935191,-10.25261 l -4.589849,-7.9375 3.873328,-0.14452 c 4.312563,-0.16091 5.135441,-0.39496 6.857026,-1.95031 0.927233,-0.8377 1.080167,-0.89801 1.23933,-0.48873 0.917146,2.35839 2.227985,6.52116 2.112383,6.70821 -0.07978,0.12909 -0.681532,0.5491 -1.337233,0.93336 -0.695013,0.40731 -1.138111,0.83959 -1.062519,1.03658 0.07131,0.18584 1.786771,3.23637 3.812119,6.77895 2.025345,3.54257 3.823515,6.70894 3.995915,7.03636 l 0.31347,0.59531 h -3.96673 -3.966709 z m 22.621619,1.89849 c -3.02543,-0.663 -6.35111,-2.4321 -8.41625,-4.47702 -3.614,-3.5786 -5.35141,-6.9032 -8.78075,-16.8022 -2.665594,-7.69443 -4.409079,-10.69984 -6.925976,-11.93899 -1.269492,-0.62501 -1.34366,-0.6295 -12.574534,-0.76101 l -11.297513,-0.1323 2.963138,-3.35301 2.963135,-3.35301 8.609515,-0.0204 c 9.335481,-0.0221 10.289548,0.0855 13.024617,1.46962 0.76154,0.38538 2.126332,1.45647 3.032873,2.3802 2.211785,2.25373 3.993975,5.94217 6.439695,13.32767 3.41403,10.30959 5.48111,13.67194 9.66437,15.72029 6.31892,3.09407 14.04613,0.91513 17.82227,-5.02557 2.63322,-4.14263 2.6276,-10.31974 -0.0131,-14.40541 -1.90818,-2.95233 -4.20302,-4.78366 -7.35465,-5.86912 -2.47918,-0.85388 -6.61461,-0.83091 -8.89226,0.0494 -3.19293,1.23403 -5.63828,3.2812 -7.36906,6.16916 -0.50548,0.84343 -0.97336,1.43874 -1.03973,1.32291 -0.0664,-0.11583 -0.26908,-0.68685 -0.45045,-1.26893 -0.18138,-0.58209 -0.80568,-2.28979 -1.38734,-3.79491 l -1.05757,-2.73658 1.02186,-1.05925 c 2.50179,-2.59332 6.14646,-4.80493 9.40089,-5.70454 1.23979,-0.34271 2.67222,-0.46306 5.51161,-0.46306 4.19548,0 6.16457,0.4216 9.25473,1.9815 3.67799,1.85665 7.51149,5.77543 9.38302,9.59176 2.6869,5.47898 2.70702,12.20895 0.0532,17.79549 -2.30004,4.8418 -7.31009,9.21775 -12.46765,10.88967 -2.71967,0.88163 -8.18085,1.11136 -11.11808,0.46768 z"
       id="path57" />
  </g>
</svg>
